<mxfile host="65bd71144e">
    <diagram id="HIP3nbAZw_EuaXWnEj3U" name="Page-1">
        <mxGraphModel dx="980" dy="559" grid="1" gridSize="10" guides="1" tooltips="1" connect="1" arrows="1" fold="1" page="1" pageScale="1" pageWidth="850" pageHeight="1100" math="0" shadow="0">
            <root>
                <mxCell id="0"/>
                <mxCell id="1" parent="0"/>
                <mxCell id="7" value="http://ics2o.mths.ca" style="swimlane;whiteSpace=wrap;html=1;" parent="1" vertex="1">
                    <mxGeometry x="40" y="40" width="760" height="480" as="geometry"/>
                </mxCell>
                <mxCell id="8" value="&lt;font style=&quot;font-size: 36px;&quot;&gt;Multiplication program&lt;/font&gt;" style="text;html=1;strokeColor=none;fillColor=none;align=center;verticalAlign=middle;whiteSpace=wrap;rounded=0;" vertex="1" parent="7">
                    <mxGeometry x="185" y="50" width="400" height="30" as="geometry"/>
                </mxCell>
                <mxCell id="9" value="&lt;font style=&quot;font-size: 24px;&quot;&gt;Enter the Multiplicand and Multiplier&lt;/font&gt;" style="text;html=1;strokeColor=none;fillColor=none;align=center;verticalAlign=middle;whiteSpace=wrap;rounded=0;fontSize=36;" vertex="1" parent="7">
                    <mxGeometry x="40" y="120" width="400" height="30" as="geometry"/>
                </mxCell>
                <mxCell id="11" value="Enter here" style="rounded=0;whiteSpace=wrap;html=1;fontSize=24;" vertex="1" parent="7">
                    <mxGeometry x="55" y="220" width="235" height="30" as="geometry"/>
                </mxCell>
                <mxCell id="13" value="Multiplicand" style="text;html=1;strokeColor=none;fillColor=none;align=center;verticalAlign=middle;whiteSpace=wrap;rounded=0;fontSize=24;" vertex="1" parent="7">
                    <mxGeometry x="55" y="180" width="130" height="30" as="geometry"/>
                </mxCell>
                <mxCell id="15" value="Multiplier" style="text;html=1;strokeColor=none;fillColor=none;align=center;verticalAlign=middle;whiteSpace=wrap;rounded=0;fontSize=24;" vertex="1" parent="7">
                    <mxGeometry x="50" y="270" width="130" height="30" as="geometry"/>
                </mxCell>
                <mxCell id="16" value="Enter here" style="rounded=0;whiteSpace=wrap;html=1;fontSize=24;" vertex="1" parent="7">
                    <mxGeometry x="55" y="310" width="235" height="30" as="geometry"/>
                </mxCell>
                <mxCell id="17" value="Calculate" style="rounded=0;whiteSpace=wrap;html=1;fontSize=24;" vertex="1" parent="7">
                    <mxGeometry x="60" y="380" width="110" height="30" as="geometry"/>
                </mxCell>
                <mxCell id="18" value="" style="shape=image;verticalLabelPosition=bottom;labelBackgroundColor=default;verticalAlign=top;aspect=fixed;imageAspect=0;image=https://olivia-boyce-richardson-probable-rotary-r95w44977xp3xgx-5500.preview.app.github.dev/multiplication.png;" vertex="1" parent="7">
                    <mxGeometry x="460" y="172.12" width="230" height="207.88" as="geometry"/>
                </mxCell>
            </root>
        </mxGraphModel>
    </diagram>
</mxfile>